# xmcd
#
# Track frame offsets:
#	150
#	18196
#	34173
#	53849
#	76184
#	97558
#	119145
#	132457
#
# Disc length: 2105 seconds
#
# Revision: 0
# Processed by: cddbd v1.5.2PL0 Copyright (c) Steve Scherf et al.
# Submitted via: EZCDAudioConverter 2.3.4.1
#
DISCID=5c083708
DTITLE=Aaron and Christina - Like A Blankey
DYEAR=1900
DGENRE=Gospel
TTITLE0=Our God Is Lord Of All
TTITLE1=He's Coming
TTITLE2=All That Matters
TTITLE3=More Than Enough
TTITLE4=The More I Seek You
TTITLE5=Run To You 
TTITLE6=Just As I Am
TTITLE7=I'd Rather Have Jesus
EXTD=
EXTT0=
EXTT1=
EXTT2=
EXTT3=
EXTT4=
EXTT5=
EXTT6=
EXTT7=
PLAYORDER=
